<svg width="140" height="45" viewBox="0 0 140 45" fill="none" xmlns="http://www.w3.org/2000/svg">
<path d="M1.78929 4.02985C3.84776 4.02985 5.51648 2.22563 5.51648 0H130.473H133.483C133.483 2.22563 135.152 4.02985 137.211 4.02985H138V7.72388V37.2761V40.9702H137.211C135.152 40.9702 133.483 42.7744 133.483 45H128.967H5.51648C5.51648 42.7744 3.84776 40.9702 1.78929 40.9702H1V39.2911V4.02985H1.78929Z" fill="white"/>
<path d="M139.262 39L138 40V38L139.262 39Z" fill="white"/>
<path d="M139.262 35.0002L138 36.0001V34.0001L139.262 35.0002Z" fill="white"/>
<path d="M139.262 30.9999L138 31.9999V29.9999L139.262 30.9999Z" fill="white"/>
<path d="M139.262 27L138 28V26L139.262 27Z" fill="white"/>
<path d="M139.262 23L138 24V22L139.262 23Z" fill="white"/>
<path d="M139.262 19.0001L138 20V18L139.262 19.0001Z" fill="white"/>
<path d="M139.262 15L138 15.9999V14L139.262 15Z" fill="white"/>
<path d="M139.262 10.9998L138 11.9998V9.99988L139.262 10.9998Z" fill="white"/>
<path d="M139.262 7L138 8V6L139.262 7Z" fill="white"/>
<path d="M139.262 37L138 38V36L139.262 37Z" fill="white"/>
<path d="M139.262 33.0001L138 34V32L139.262 33.0001Z" fill="white"/>
<path d="M139.262 28.9999L138 29.9999V27.9999L139.262 28.9999Z" fill="white"/>
<path d="M139.262 25L138 26V24L139.262 25Z" fill="white"/>
<path d="M139.262 21L138 22V20L139.262 21Z" fill="white"/>
<path d="M139.262 17.0001L138 18.0001V16.0001L139.262 17.0001Z" fill="white"/>
<path d="M139.262 12.9998L138 13.9998V11.9999L139.262 12.9998Z" fill="white"/>
<path d="M139.262 8.99997L138 10V8L139.262 8.99997Z" fill="white"/>
<path d="M139.262 5L138 6V4L139.262 5Z" fill="white"/>
<path d="M0 5.00774L1.2614 4V6.01548L0 5.00774Z" fill="white"/>
<path d="M0 9.03861L1.2614 8.03088V10.0464L0 9.03861Z" fill="white"/>
<path d="M0 13.0697L1.2614 12.062V14.0775L0 13.0697Z" fill="white"/>
<path d="M0 17.1007L1.2614 16.0929V18.1084L0 17.1007Z" fill="white"/>
<path d="M0 21.1317L1.2614 20.1239V22.1394L0 21.1317Z" fill="white"/>
<path d="M0 25.1625L1.2614 24.1548V26.1703L0 25.1625Z" fill="white"/>
<path d="M0 29.1934L1.2614 28.1857V30.2011L0 29.1934Z" fill="white"/>
<path d="M0 33.2245L1.2614 32.2168V34.2322L0 33.2245Z" fill="white"/>
<path d="M0 37.2555L1.2614 36.2477V38.2632L0 37.2555Z" fill="white"/>
<path d="M0 7.02324L1.2614 6.0155V8.03098L0 7.02324Z" fill="white"/>
<path d="M0 11.0541L1.2614 10.0464V12.0619L0 11.0541Z" fill="white"/>
<path d="M0 15.0852L1.2614 14.0775V16.093L0 15.0852Z" fill="white"/>
<path d="M0 19.1162L1.2614 18.1084V20.1239L0 19.1162Z" fill="white"/>
<path d="M0 23.1472L1.2614 22.1394V24.1549L0 23.1472Z" fill="white"/>
<path d="M0 27.1779L1.2614 26.1702V28.1856L0 27.1779Z" fill="white"/>
<path d="M0 31.209L1.2614 30.2013V32.2167L0 31.209Z" fill="white"/>
<path d="M0 35.24L1.2614 34.2322V36.2477L0 35.24Z" fill="white"/>
<path d="M0 39.2709L1.2614 38.2632V40.2787L0 39.2709Z" fill="white"/>
<path d="M129.88 39.0316H125.393L125.8 38.6587V40H125.048V38.181H129.88V39.0316ZM129.88 35.5581H125.393L125.8 35.1852V36.5265H125.048V34.7075H129.88V35.5581ZM129.88 32.0847H125.393L125.8 31.7117V33.053H125.048V31.234H129.88V32.0847ZM129.88 28.5785L125.407 26.6875L125.807 26.465V29.0626L125.372 28.657H126.629V29.4487H125.048V25.8892H125.648L129.88 27.669V28.5785ZM129.949 22.5989C129.949 22.9609 129.853 23.288 129.659 23.5803C129.466 23.8682 129.185 24.095 128.817 24.2608C128.444 24.4265 127.994 24.5095 127.464 24.5095C126.934 24.5095 126.486 24.4265 126.118 24.2608C125.745 24.095 125.462 23.8682 125.268 23.5803C125.075 23.288 124.979 22.9609 124.979 22.5989C124.979 22.2324 125.075 21.9053 125.268 21.6174C125.462 21.3295 125.745 21.1026 126.118 20.9369C126.486 20.7668 126.934 20.6817 127.464 20.6817C127.994 20.6817 128.444 20.7668 128.817 20.9369C129.185 21.1026 129.466 21.3295 129.659 21.6174C129.853 21.9053 129.949 22.2324 129.949 22.5989ZM129.169 22.5989C129.169 22.3851 129.109 22.1997 128.99 22.0427C128.865 21.8856 128.677 21.7635 128.424 21.6763C128.17 21.5847 127.851 21.5389 127.464 21.5389C127.072 21.5389 126.753 21.5847 126.504 21.6763C126.251 21.7635 126.064 21.8856 125.945 22.0427C125.821 22.1997 125.759 22.3851 125.759 22.5989C125.759 22.8038 125.821 22.987 125.945 23.1485C126.064 23.3055 126.251 23.4298 126.504 23.5214C126.753 23.6086 127.072 23.6523 127.464 23.6523C127.851 23.6523 128.17 23.6086 128.424 23.5214C128.677 23.4298 128.865 23.3055 128.99 23.1485C129.109 22.987 129.169 22.8038 129.169 22.5989ZM129.949 17.1428C129.949 17.5573 129.858 17.9127 129.673 18.2093C129.485 18.506 129.213 18.7328 128.858 18.8898C128.504 19.0469 128.066 19.1254 127.547 19.1254C126.994 19.1254 126.527 19.0316 126.145 18.844C125.764 18.6521 125.474 18.3882 125.275 18.0523C125.077 17.7121 124.979 17.3217 124.979 16.8811C124.979 16.6499 125.004 16.4296 125.054 16.2202C125.105 16.0065 125.184 15.8255 125.289 15.6771L125.966 15.9912C125.878 16.1178 125.819 16.2552 125.786 16.4034C125.75 16.5474 125.731 16.7001 125.731 16.8614C125.731 17.2933 125.871 17.6358 126.152 17.8887C126.433 18.1417 126.847 18.2682 127.395 18.2682C127.483 18.2682 127.586 18.2661 127.706 18.2617C127.821 18.2574 127.938 18.242 128.058 18.2159L127.754 18.4776C127.565 18.3991 127.409 18.2922 127.284 18.157C127.155 18.0174 127.059 17.8538 126.994 17.6662C126.93 17.4743 126.898 17.2671 126.898 17.0447C126.898 16.7437 126.96 16.4754 127.084 16.2398C127.204 16.0043 127.376 15.8168 127.602 15.6771C127.823 15.5376 128.083 15.4677 128.382 15.4677C128.7 15.4677 128.976 15.542 129.211 15.6902C129.445 15.8386 129.627 16.0392 129.756 16.2922C129.885 16.5452 129.949 16.8287 129.949 17.1428ZM129.245 17.1886C129.245 17.0142 129.213 16.8593 129.148 16.724C129.079 16.5889 128.983 16.4842 128.858 16.41C128.734 16.3314 128.589 16.2922 128.424 16.2922C128.17 16.2922 127.97 16.3751 127.823 16.5408C127.676 16.7066 127.602 16.9291 127.602 17.2082C127.602 17.3914 127.638 17.5529 127.712 17.6924C127.781 17.8277 127.878 17.9368 128.002 18.0196C128.127 18.0981 128.27 18.1374 128.43 18.1374C128.577 18.1374 128.713 18.1003 128.838 18.0261C128.962 17.952 129.061 17.8452 129.135 17.7055C129.209 17.5616 129.245 17.3893 129.245 17.1886ZM129.949 12.1311C129.949 12.4931 129.853 12.8203 129.659 13.1126C129.466 13.4005 129.185 13.6273 128.817 13.7931C128.444 13.9588 127.994 14.0417 127.464 14.0417C126.934 14.0417 126.486 13.9588 126.118 13.7931C125.745 13.6273 125.462 13.4005 125.268 13.1126C125.075 12.8203 124.979 12.4931 124.979 12.1311C124.979 11.7647 125.075 11.4375 125.268 11.1496C125.462 10.8617 125.745 10.6349 126.118 10.4692C126.486 10.299 126.934 10.214 127.464 10.214C127.994 10.214 128.444 10.299 128.817 10.4692C129.185 10.6349 129.466 10.8617 129.659 11.1496C129.853 11.4375 129.949 11.7647 129.949 12.1311ZM129.169 12.1311C129.169 11.9173 129.109 11.732 128.99 11.5749C128.865 11.4179 128.677 11.2957 128.424 11.2085C128.17 11.1169 127.851 11.0711 127.464 11.0711C127.072 11.0711 126.753 11.1169 126.504 11.2085C126.251 11.2957 126.064 11.4179 125.945 11.5749C125.821 11.732 125.759 11.9173 125.759 12.1311C125.759 12.3361 125.821 12.5193 125.945 12.6807C126.064 12.8378 126.251 12.9621 126.504 13.0537C126.753 13.1409 127.072 13.1846 127.464 13.1846C127.851 13.1846 128.17 13.1409 128.424 13.0537C128.677 12.9621 128.865 12.8378 128.99 12.6807C129.109 12.5193 129.169 12.3361 129.169 12.1311ZM129.949 6.67505C129.949 7.08944 129.858 7.44496 129.673 7.74158C129.485 8.0382 129.213 8.26503 128.858 8.42208C128.504 8.57912 128.066 8.65763 127.547 8.65763C126.994 8.65763 126.527 8.56388 126.145 8.37628C125.764 8.18434 125.474 7.92043 125.275 7.58455C125.077 7.2443 124.979 6.85389 124.979 6.41332C124.979 6.18213 125.004 5.96184 125.054 5.75246C125.105 5.53872 125.184 5.3577 125.289 5.20938L125.966 5.52345C125.878 5.64995 125.819 5.78736 125.786 5.93567C125.75 6.07962 125.731 6.23229 125.731 6.39369C125.731 6.82554 125.871 7.16796 126.152 7.42097C126.433 7.67397 126.847 7.80047 127.395 7.80047C127.483 7.80047 127.586 7.79829 127.706 7.79393C127.821 7.78956 127.938 7.7743 128.058 7.74813L127.754 8.00985C127.565 7.93133 127.409 7.82446 127.284 7.68924C127.155 7.54965 127.059 7.38607 126.994 7.1985C126.93 7.00657 126.898 6.79937 126.898 6.5769C126.898 6.27592 126.96 6.00765 127.084 5.77209C127.204 5.53654 127.376 5.34897 127.602 5.20938C127.823 5.0698 128.083 5 128.382 5C128.7 5 128.976 5.07415 129.211 5.22247C129.445 5.37078 129.627 5.57143 129.756 5.82444C129.885 6.07744 129.949 6.36098 129.949 6.67505ZM129.245 6.72085C129.245 6.54636 129.213 6.39151 129.148 6.25629C129.079 6.12106 128.983 6.01637 128.858 5.94221C128.734 5.8637 128.589 5.82444 128.424 5.82444C128.17 5.82444 127.97 5.90732 127.823 6.07308C127.676 6.23883 127.602 6.4613 127.602 6.74048C127.602 6.92369 127.638 7.08509 127.712 7.22467C127.781 7.3599 127.878 7.46895 128.002 7.55183C128.127 7.63035 128.27 7.66961 128.43 7.66961C128.577 7.66961 128.713 7.63253 128.838 7.55837C128.962 7.48422 129.061 7.37734 129.135 7.23776C129.209 7.09381 129.245 6.92151 129.245 6.72085Z" fill="#3C3636"/>
<path d="M121 3H129.77C132.064 3 133.924 4.78577 133.924 6.98864V38.0114C133.924 40.2142 132.064 42 129.77 42H121V3Z" stroke="#A8A7A7"/>
<path d="M10.0456 5.96839H14.5331L14.1258 6.34135V5H14.8783V6.819H10.0456V5.96839ZM10.0456 9.44189H14.5331L14.1258 9.81483V8.4735H14.8783V10.2925H10.0456V9.44189ZM10.0456 12.9154H14.5331L14.1258 13.2883V11.947H14.8783V13.766H10.0456V12.9154ZM10.0456 16.4215L14.5193 18.3125L14.1189 18.535V15.9374L14.5538 16.343H13.2973V15.5513H14.8783V19.1108H14.2776L10.0456 17.331V16.4215ZM9.97656 22.4012C9.97656 22.0391 10.0732 21.712 10.2665 21.4197C10.4598 21.1318 10.7406 20.905 11.1088 20.7392C11.4816 20.5735 11.9326 20.4906 12.4619 20.4906C12.9913 20.4906 13.44 20.5735 13.8082 20.7392C14.181 20.905 14.4641 21.1318 14.6574 21.4197C14.8507 21.712 14.9473 22.0391 14.9473 22.4012C14.9473 22.7676 14.8507 23.0947 14.6574 23.3826C14.4641 23.6705 14.181 23.8974 13.8082 24.0631C13.44 24.2332 12.9913 24.3183 12.4619 24.3183C11.9326 24.3183 11.4816 24.2332 11.1088 24.0631C10.7406 23.8974 10.4598 23.6705 10.2665 23.3826C10.0732 23.0947 9.97656 22.7676 9.97656 22.4012ZM10.7567 22.4012C10.7567 22.6149 10.8166 22.8003 10.9362 22.9573C11.0605 23.1144 11.2491 23.2365 11.5023 23.3237C11.7555 23.4153 12.0753 23.4611 12.4619 23.4611C12.8532 23.4611 13.173 23.4153 13.4216 23.3237C13.6747 23.2365 13.8611 23.1144 13.9808 22.9573C14.1051 22.8003 14.1672 22.6149 14.1672 22.4012C14.1672 22.1962 14.1051 22.013 13.9808 21.8515C13.8611 21.6945 13.6747 21.5702 13.4216 21.4786C13.173 21.3914 12.8532 21.3477 12.4619 21.3477C12.0753 21.3477 11.7555 21.3914 11.5023 21.4786C11.2491 21.5702 11.0605 21.6945 10.9362 21.8515C10.8166 22.013 10.7567 22.1962 10.7567 22.4012ZM9.97656 27.8572C9.97656 27.4427 10.0686 27.0873 10.2527 26.7907C10.4414 26.494 10.713 26.2672 11.0674 26.1102C11.4217 25.9532 11.859 25.8746 12.3791 25.8746C12.9314 25.8746 13.3986 25.9684 13.7806 26.156C14.1626 26.3479 14.4525 26.6118 14.6505 26.9477C14.8484 27.288 14.9473 27.6783 14.9473 28.1189C14.9473 28.3501 14.922 28.5704 14.8714 28.7798C14.8208 28.9935 14.7425 29.1745 14.6366 29.3229L13.9601 29.0088C14.0476 28.8822 14.1073 28.7448 14.1396 28.5966C14.1764 28.4526 14.1948 28.2999 14.1948 28.1386C14.1948 27.7067 14.0545 27.3642 13.7737 27.1113C13.4929 26.8583 13.0787 26.7318 12.531 26.7318C12.4435 26.7318 12.3399 26.7339 12.2203 26.7383C12.1052 26.7426 11.9878 26.758 11.8682 26.7841L12.172 26.5224C12.3607 26.6009 12.5172 26.7078 12.6414 26.843C12.7703 26.9826 12.867 27.1462 12.9314 27.3338C12.9958 27.5257 13.0281 27.7329 13.0281 27.9554C13.0281 28.2563 12.9659 28.5246 12.8417 28.7602C12.722 28.9957 12.5494 29.1832 12.3239 29.3229C12.1029 29.4624 11.8429 29.5323 11.5437 29.5323C11.2262 29.5323 10.95 29.458 10.7153 29.3098C10.4805 29.1614 10.2988 28.9608 10.1699 28.7078C10.041 28.4548 9.97656 28.1713 9.97656 27.8572ZM10.6808 27.8114C10.6808 27.9858 10.713 28.1407 10.7774 28.276C10.8464 28.4111 10.9431 28.5158 11.0674 28.59C11.1916 28.6686 11.3366 28.7078 11.5023 28.7078C11.7555 28.7078 11.9557 28.6249 12.1029 28.4592C12.2502 28.2934 12.3239 28.0709 12.3239 27.7918C12.3239 27.6086 12.2871 27.4471 12.2134 27.3076C12.1444 27.1723 12.0477 27.0632 11.9234 26.9804C11.7992 26.9019 11.6565 26.8627 11.4954 26.8627C11.3482 26.8627 11.2123 26.8997 11.0881 26.9739C10.9638 27.048 10.8649 27.1549 10.7912 27.2945C10.7175 27.4384 10.6808 27.6107 10.6808 27.8114ZM9.97656 32.8689C9.97656 32.5069 10.0732 32.1797 10.2665 31.8874C10.4598 31.5995 10.7406 31.3728 11.1088 31.2069C11.4816 31.0412 11.9326 30.9583 12.4619 30.9583C12.9913 30.9583 13.44 31.0412 13.8082 31.2069C14.181 31.3728 14.4641 31.5995 14.6574 31.8874C14.8507 32.1797 14.9473 32.5069 14.9473 32.8689C14.9473 33.2353 14.8507 33.5625 14.6574 33.8504C14.4641 34.1383 14.181 34.3651 13.8082 34.5309C13.44 34.701 12.9913 34.786 12.4619 34.786C11.9326 34.786 11.4816 34.701 11.1088 34.5309C10.7406 34.3651 10.4598 34.1383 10.2665 33.8504C10.0732 33.5625 9.97656 33.2353 9.97656 32.8689ZM10.7567 32.8689C10.7567 33.0827 10.8166 33.268 10.9362 33.4251C11.0605 33.5821 11.2491 33.7043 11.5023 33.7915C11.7555 33.8831 12.0753 33.9289 12.4619 33.9289C12.8532 33.9289 13.173 33.8831 13.4216 33.7915C13.6747 33.7043 13.8611 33.5821 13.9808 33.4251C14.1051 33.268 14.1672 33.0827 14.1672 32.8689C14.1672 32.6639 14.1051 32.4807 13.9808 32.3193C13.8611 32.1622 13.6747 32.0379 13.4216 31.9463C13.173 31.8591 12.8532 31.8154 12.4619 31.8154C12.0753 31.8154 11.7555 31.8591 11.5023 31.9463C11.2491 32.0379 11.0605 32.1622 10.9362 32.3193C10.8166 32.4807 10.7567 32.6639 10.7567 32.8689ZM9.97656 38.325C9.97656 37.9106 10.0686 37.555 10.2527 37.2584C10.4414 36.9618 10.713 36.735 11.0674 36.5779C11.4217 36.4209 11.859 36.3424 12.3791 36.3424C12.9314 36.3424 13.3986 36.4361 13.7806 36.6237C14.1626 36.8156 14.4525 37.0796 14.6505 37.4155C14.8484 37.7557 14.9473 38.1461 14.9473 38.5867C14.9473 38.8178 14.922 39.0382 14.8714 39.2475C14.8208 39.4613 14.7425 39.6423 14.6366 39.7906L13.9601 39.4766C14.0476 39.3501 14.1073 39.2127 14.1396 39.0643C14.1764 38.9204 14.1948 38.7677 14.1948 38.6063C14.1948 38.1745 14.0545 37.8321 13.7737 37.579C13.4929 37.326 13.0787 37.1995 12.531 37.1995C12.4435 37.1995 12.3399 37.2017 12.2203 37.2061C12.1052 37.2105 11.9878 37.2257 11.8682 37.2519L12.172 36.9902C12.3607 37.0687 12.5172 37.1755 12.6414 37.3108C12.7703 37.4503 12.867 37.6139 12.9314 37.8015C12.9958 37.9934 13.0281 38.2006 13.0281 38.4231C13.0281 38.7241 12.9659 38.9924 12.8417 39.2279C12.722 39.4635 12.5494 39.6511 12.3239 39.7906C12.1029 39.9302 11.8429 40 11.5437 40C11.2262 40 10.95 39.9259 10.7153 39.7775C10.4805 39.6292 10.2988 39.4286 10.1699 39.1756C10.041 38.9225 9.97656 38.639 9.97656 38.325ZM10.6808 38.2792C10.6808 38.4537 10.713 38.6085 10.7774 38.7437C10.8464 38.879 10.9431 38.9837 11.0674 39.0578C11.1916 39.1363 11.3366 39.1756 11.5023 39.1756C11.7555 39.1756 11.9557 39.0927 12.1029 38.9269C12.2502 38.7612 12.3239 38.5387 12.3239 38.2595C12.3239 38.0763 12.2871 37.9149 12.2134 37.7753C12.1444 37.6401 12.0477 37.5311 11.9234 37.4482C11.7992 37.3697 11.6565 37.3304 11.4954 37.3304C11.3482 37.3304 11.2123 37.3675 11.0881 37.4416C10.9638 37.5158 10.8649 37.6227 10.7912 37.7622C10.7175 37.9062 10.6808 38.0785 10.6808 38.2792Z" fill="#3C3636"/>
<path d="M17.9298 44H9.83458C7.7168 44 6 42.0769 6 39.7045V6.29545C6 3.92314 7.7168 2 9.83458 2H17.9298V44Z" stroke="#A8A7A7"/>
</svg>
