<svg width="48" height="17" viewBox="0 0 48 17" fill="none" xmlns="http://www.w3.org/2000/svg">
<path d="M48 15.4776C47.5594 15.4776 47.2022 16.1592 47.2022 17H44.41C41 17 40.5 17 36.7776 17H34.5H28.5C28.2245 15.2128 27.2412 15.1948 27 17H18.4986H15.4154H13.394H12.9222H12.3324H0V0H12.3324H12.9222H13.394H15.4154H18.4986H27C27.2311 1.83204 28.2357 1.81564 28.5 0H37.1875C39.7055 0 41.6875 0 44.41 0H47.2022C47.2022 0.840789 47.5594 1.52239 48 1.52239C48 7.56678 48 9.43322 48 15.4776Z" fill="white"/>
</svg>
