<svg width="363" height="67" viewBox="0 0 363 67" fill="none" xmlns="http://www.w3.org/2000/svg">
<g filter="url(#filter0_b_295_154)">
<path d="M361 61V61C357.686 61 355 63.6863 355 67V67H334V67C331.996 59.6991 321.636 59.7366 319.5 67V67L231.875 67L188.5 67V67C186.428 59.9562 176.314 59.8854 174.5 67V67H139.125L115.937 67H100.734H97.1854H92.75L0 67V0L92.75 0H97.1854H100.734H115.937L139.125 0H174.5V0C176.238 7.22041 186.512 7.15576 188.5 0V0L319.5 0V0C321.55 7.37868 332.078 7.41298 334 0V0H355V0C355 3.31371 357.686 6 361 6V6C361 29.822 361 37.178 361 61Z" fill="white"/>
</g>
<path d="M347 50.908H342.45L342.863 50.509V51.944H342.1V49.998H347V50.908ZM347 47.192H342.45L342.863 46.793V48.228H342.1V46.282H347V47.192ZM347 43.476H342.45L342.863 43.077V44.512H342.1V42.566H347V43.476ZM347 39.725L342.464 37.702L342.87 37.464V40.243L342.429 39.809H343.703V40.656H342.1V36.848H342.709L347 38.752V39.725ZM347.07 33.3279C347.07 33.7152 346.972 34.0652 346.776 34.3779C346.58 34.6859 346.295 34.9285 345.922 35.1059C345.544 35.2832 345.087 35.3719 344.55 35.3719C344.013 35.3719 343.558 35.2832 343.185 35.1059C342.807 34.9285 342.52 34.6859 342.324 34.3779C342.128 34.0652 342.03 33.7152 342.03 33.3279C342.03 32.9359 342.128 32.5859 342.324 32.2779C342.52 31.9699 342.807 31.7272 343.185 31.5499C343.558 31.3679 344.013 31.2769 344.55 31.2769C345.087 31.2769 345.544 31.3679 345.922 31.5499C346.295 31.7272 346.58 31.9699 346.776 32.2779C346.972 32.5859 347.07 32.9359 347.07 33.3279ZM346.279 33.3279C346.279 33.0992 346.218 32.9009 346.097 32.7329C345.971 32.5649 345.78 32.4342 345.523 32.3409C345.266 32.2429 344.942 32.1939 344.55 32.1939C344.153 32.1939 343.829 32.2429 343.577 32.3409C343.32 32.4342 343.131 32.5649 343.01 32.7329C342.884 32.9009 342.821 33.0992 342.821 33.3279C342.821 33.5472 342.884 33.7432 343.01 33.9159C343.131 34.0839 343.32 34.2169 343.577 34.3149C343.829 34.4082 344.153 34.4549 344.55 34.4549C344.942 34.4549 345.266 34.4082 345.523 34.3149C345.78 34.2169 345.971 34.0839 346.097 33.9159C346.218 33.7432 346.279 33.5472 346.279 33.3279ZM347.07 27.4909C347.07 27.9343 346.977 28.3146 346.79 28.6319C346.599 28.9493 346.323 29.1919 345.964 29.3599C345.605 29.5279 345.161 29.6119 344.634 29.6119C344.074 29.6119 343.6 29.5116 343.213 29.3109C342.826 29.1056 342.532 28.8233 342.331 28.4639C342.13 28.0999 342.03 27.6823 342.03 27.2109C342.03 26.9636 342.056 26.7279 342.107 26.5039C342.158 26.2753 342.238 26.0816 342.345 25.9229L343.031 26.2589C342.942 26.3943 342.882 26.5413 342.849 26.6999C342.812 26.8539 342.793 27.0173 342.793 27.1899C342.793 27.6519 342.935 28.0183 343.22 28.2889C343.505 28.5596 343.925 28.6949 344.48 28.6949C344.569 28.6949 344.674 28.6926 344.795 28.6879C344.912 28.6833 345.031 28.6669 345.152 28.6389L344.844 28.9189C344.653 28.8349 344.494 28.7206 344.368 28.5759C344.237 28.4266 344.139 28.2516 344.074 28.0509C344.009 27.8456 343.976 27.6239 343.976 27.3859C343.976 27.0639 344.039 26.7769 344.165 26.5249C344.286 26.2729 344.461 26.0723 344.69 25.9229C344.914 25.7736 345.178 25.6989 345.481 25.6989C345.803 25.6989 346.083 25.7783 346.321 25.9369C346.559 26.0956 346.743 26.3103 346.874 26.5809C347.005 26.8516 347.07 27.1549 347.07 27.4909ZM346.356 27.5399C346.356 27.3533 346.323 27.1876 346.258 27.0429C346.188 26.8983 346.09 26.7863 345.964 26.7069C345.838 26.6229 345.691 26.5809 345.523 26.5809C345.266 26.5809 345.063 26.6696 344.914 26.8469C344.765 27.0243 344.69 27.2623 344.69 27.5609C344.69 27.7569 344.727 27.9296 344.802 28.0789C344.872 28.2236 344.97 28.3403 345.096 28.4289C345.222 28.5129 345.367 28.5549 345.53 28.5549C345.679 28.5549 345.817 28.5153 345.943 28.4359C346.069 28.3566 346.169 28.2423 346.244 28.0929C346.319 27.9389 346.356 27.7546 346.356 27.5399ZM347.07 22.1293C347.07 22.5166 346.972 22.8666 346.776 23.1793C346.58 23.4873 346.295 23.7299 345.922 23.9073C345.544 24.0846 345.087 24.1733 344.55 24.1733C344.013 24.1733 343.558 24.0846 343.185 23.9073C342.807 23.7299 342.52 23.4873 342.324 23.1793C342.128 22.8666 342.03 22.5166 342.03 22.1293C342.03 21.7373 342.128 21.3873 342.324 21.0793C342.52 20.7713 342.807 20.5286 343.185 20.3513C343.558 20.1693 344.013 20.0783 344.55 20.0783C345.087 20.0783 345.544 20.1693 345.922 20.3513C346.295 20.5286 346.58 20.7713 346.776 21.0793C346.972 21.3873 347.07 21.7373 347.07 22.1293ZM346.279 22.1293C346.279 21.9006 346.218 21.7023 346.097 21.5343C345.971 21.3663 345.78 21.2356 345.523 21.1423C345.266 21.0443 344.942 20.9953 344.55 20.9953C344.153 20.9953 343.829 21.0443 343.577 21.1423C343.32 21.2356 343.131 21.3663 343.01 21.5343C342.884 21.7023 342.821 21.9006 342.821 22.1293C342.821 22.3486 342.884 22.5446 343.01 22.7173C343.131 22.8853 343.32 23.0183 343.577 23.1163C343.829 23.2096 344.153 23.2563 344.55 23.2563C344.942 23.2563 345.266 23.2096 345.523 23.1163C345.78 23.0183 345.971 22.8853 346.097 22.7173C346.218 22.5446 346.279 22.3486 346.279 22.1293ZM347.07 16.2923C347.07 16.7356 346.977 17.116 346.79 17.4333C346.599 17.7506 346.323 17.9933 345.964 18.1613C345.605 18.3293 345.161 18.4133 344.634 18.4133C344.074 18.4133 343.6 18.313 343.213 18.1123C342.826 17.907 342.532 17.6246 342.331 17.2653C342.13 16.9013 342.03 16.4836 342.03 16.0123C342.03 15.765 342.056 15.5293 342.107 15.3053C342.158 15.0766 342.238 14.883 342.345 14.7243L343.031 15.0603C342.942 15.1956 342.882 15.3426 342.849 15.5013C342.812 15.6553 342.793 15.8186 342.793 15.9913C342.793 16.4533 342.935 16.8196 343.22 17.0903C343.505 17.361 343.925 17.4963 344.48 17.4963C344.569 17.4963 344.674 17.494 344.795 17.4893C344.912 17.4846 345.031 17.4683 345.152 17.4403L344.844 17.7203C344.653 17.6363 344.494 17.522 344.368 17.3773C344.237 17.228 344.139 17.053 344.074 16.8523C344.009 16.647 343.976 16.4253 343.976 16.1873C343.976 15.8653 344.039 15.5783 344.165 15.3263C344.286 15.0743 344.461 14.8736 344.69 14.7243C344.914 14.575 345.178 14.5003 345.481 14.5003C345.803 14.5003 346.083 14.5796 346.321 14.7383C346.559 14.897 346.743 15.1116 346.874 15.3823C347.005 15.653 347.07 15.9563 347.07 16.2923ZM346.356 16.3413C346.356 16.1546 346.323 15.989 346.258 15.8443C346.188 15.6996 346.09 15.5876 345.964 15.5083C345.838 15.4243 345.691 15.3823 345.523 15.3823C345.266 15.3823 345.063 15.471 344.914 15.6483C344.765 15.8256 344.69 16.0636 344.69 16.3623C344.69 16.5583 344.727 16.731 344.802 16.8803C344.872 17.025 344.97 17.1416 345.096 17.2303C345.222 17.3143 345.367 17.3563 345.53 17.3563C345.679 17.3563 345.817 17.3166 345.943 17.2373C346.069 17.158 346.169 17.0436 346.244 16.8943C346.319 16.7403 346.356 16.556 346.356 16.3413Z" fill="#3C3636"/>
<path d="M363 59.4722L361 61V57.9445L363 59.4722Z" fill="white"/>
<path d="M363 53.3612L361 54.8889V51.8334L363 53.3612Z" fill="white"/>
<path d="M363 47.2499L361 48.7777V45.7222L363 47.2499Z" fill="white"/>
<path d="M363 41.1389L361 42.6666V39.6111L363 41.1389Z" fill="white"/>
<path d="M363 35.0278L361 36.5556V33.5L363 35.0278Z" fill="white"/>
<path d="M363 28.9167L361 30.4445V27.3889L363 28.9167Z" fill="white"/>
<path d="M363 22.8056L361 24.3334V21.2778L363 22.8056Z" fill="white"/>
<path d="M363 16.6944L361 18.2222V15.1666L363 16.6944Z" fill="white"/>
<path d="M363 10.5833L361 12.1111V9.05554L363 10.5833Z" fill="white"/>
<path d="M363 56.4167L361 57.9445V54.8889L363 56.4167Z" fill="white"/>
<path d="M363 50.3056L361 51.8334V48.7778L363 50.3056Z" fill="white"/>
<path d="M363 44.1944L361 45.7222V42.6666L363 44.1944Z" fill="white"/>
<path d="M363 38.0833L361 39.6111V36.5555L363 38.0833Z" fill="white"/>
<path d="M363 31.9722L361 33.5V30.4445L363 31.9722Z" fill="white"/>
<path d="M363 25.8612L361 27.3889V24.3334L363 25.8612Z" fill="white"/>
<path d="M363 19.7499L361 21.2777V18.2222L363 19.7499Z" fill="white"/>
<path d="M363 13.6389L361 15.1666V12.1111L363 13.6389Z" fill="white"/>
<path d="M363 7.52778L361 9.05556V6L363 7.52778Z" fill="white"/>
<path d="M335.5 4.5H350C352.485 4.5 354.5 6.51472 354.5 9V57C354.5 59.4853 352.485 61.5 350 61.5H335.5V4.5Z" stroke="#A8A7A7"/>
<defs>
<filter id="filter0_b_295_154" x="-16" y="-16" width="393" height="99" filterUnits="userSpaceOnUse" color-interpolation-filters="sRGB">
<feFlood flood-opacity="0" result="BackgroundImageFix"/>
<feGaussianBlur in="BackgroundImageFix" stdDeviation="8"/>
<feComposite in2="SourceAlpha" operator="in" result="effect1_backgroundBlur_295_154"/>
<feBlend mode="normal" in="SourceGraphic" in2="effect1_backgroundBlur_295_154" result="shape"/>
</filter>
</defs>
</svg>
