<svg width="725" height="67" viewBox="0 0 725 67" fill="none" xmlns="http://www.w3.org/2000/svg">
<path d="M724.901 66.9999L543.65 66.851L491.837 66.8085L460 66.5905C456.5 59 447.5 59 445 66.851L428 66.851L323 66.5905C321 58 309.5 58 307 66.5905L271.773 66.6277L226.46 66.5905L185.5 66.5905C181.5 57.9999 171.5 58.5371 168.5 66.6277L-0.103662 66.4044L-0.00343074 -0.000116474L168.5 0.185959C170.5 8.68592 183 9.49991 185.5 0.185959L226.56 0.18596L271.873 0.223175L307 0.185954C308.5 8.49997 321 8.99997 323 0.185957L445 0.446464C447.016 6.75429 458.141 6.78006 460 0.44647L543.75 0.446467L725.001 0.595328L724.901 66.9999Z" fill="white"/>
</svg>
