<svg width="161" height="48" viewBox="0 0 161 48" fill="none" xmlns="http://www.w3.org/2000/svg">
<path d="M1.91028 4.29851C4.28428 4.29851 6.20879 2.374 6.20879 0V0H150.319H153.791V0C153.791 2.374 155.716 4.29851 158.09 4.29851H159V8.23881V39.7612V43.7015H158.09C155.716 43.7015 153.791 45.626 153.791 48V48H148.582H6.20879V48C6.20879 45.626 4.28428 43.7015 1.91028 43.7015H1V41.9105V4.29851H1.91028Z" fill="white"/>
<path d="M160.269 42.2076L159 43.2787V41.1366L160.269 42.2076Z" fill="white"/>
<path d="M160.269 37.9236L159 38.9946V36.8525L160.269 37.9236Z" fill="white"/>
<path d="M160.269 33.6393L159 34.7103V32.5682L160.269 33.6393Z" fill="white"/>
<path d="M160.269 29.3552L159 30.4263V28.2842L160.269 29.3552Z" fill="white"/>
<path d="M160.269 25.071L159 26.1421V24L160.269 25.071Z" fill="white"/>
<path d="M160.269 20.7869L159 21.8579V19.7158L160.269 20.7869Z" fill="white"/>
<path d="M160.269 16.5028L159 17.5738V15.4318L160.269 16.5028Z" fill="white"/>
<path d="M160.269 12.2185L159 13.2895V11.1475L160.269 12.2185Z" fill="white"/>
<path d="M160.269 7.93444L159 9.00548V6.8634L160.269 7.93444Z" fill="white"/>
<path d="M160.269 40.0655L159 41.1366V38.9945L160.269 40.0655Z" fill="white"/>
<path d="M160.269 35.7815L159 36.8525V34.7104L160.269 35.7815Z" fill="white"/>
<path d="M160.269 31.4972L159 32.5682V30.4261L160.269 31.4972Z" fill="white"/>
<path d="M160.269 27.2131L159 28.2842V26.1421L160.269 27.2131Z" fill="white"/>
<path d="M160.269 22.9289L159 24V21.8579L160.269 22.9289Z" fill="white"/>
<path d="M160.269 18.6449L159 19.7159V17.5739L160.269 18.6449Z" fill="white"/>
<path d="M160.269 14.3606L159 15.4316V13.2896L160.269 14.3606Z" fill="white"/>
<path d="M160.269 10.0765L159 11.1476V9.00549L160.269 10.0765Z" fill="white"/>
<path d="M160.269 5.79235L159 6.86339V4.72131L160.269 5.79235Z" fill="white"/>
<path d="M0 5.79237L1.26882 4.72133L1.26882 6.8634L0 5.79237Z" fill="white"/>
<path d="M0 10.0764L1.26882 9.00538L1.26882 11.1475L0 10.0764Z" fill="white"/>
<path d="M0 14.3607L1.26882 13.2897L1.26882 15.4318L0 14.3607Z" fill="white"/>
<path d="M0 18.6448L1.26882 17.5737L1.26882 19.7158L0 18.6448Z" fill="white"/>
<path d="M0 22.929L1.26882 21.8579L1.26882 24L0 22.929Z" fill="white"/>
<path d="M0 27.2131L1.26882 26.1421L1.26882 28.2842L0 27.2131Z" fill="white"/>
<path d="M0 31.4972L1.26882 30.4262L1.26882 32.5682L0 31.4972Z" fill="white"/>
<path d="M0 35.7815L1.26882 34.7105L1.26882 36.8525L0 35.7815Z" fill="white"/>
<path d="M0 40.0656L1.26882 38.9945L1.26882 41.1366L0 40.0656Z" fill="white"/>
<path d="M0 7.93445L1.26882 6.86342L1.26882 9.00549L0 7.93445Z" fill="white"/>
<path d="M0 12.2185L1.26882 11.1475L1.26882 13.2896L0 12.2185Z" fill="white"/>
<path d="M0 16.5028L1.26882 15.4318L1.26882 17.5739L0 16.5028Z" fill="white"/>
<path d="M0 20.7869L1.26882 19.7158L1.26882 21.8579L0 20.7869Z" fill="white"/>
<path d="M0 25.0711L1.26882 24L1.26882 26.1421L0 25.0711Z" fill="white"/>
<path d="M0 29.3551L1.26882 28.2841L1.26882 30.4261L0 29.3551Z" fill="white"/>
<path d="M0 33.6394L1.26882 32.5684L1.26882 34.7104L0 33.6394Z" fill="white"/>
<path d="M0 37.9235L1.26882 36.8524L1.26882 38.9945L0 37.9235Z" fill="white"/>
<path d="M0 42.2076L1.26882 41.1366L1.26882 43.2787L0 42.2076Z" fill="white"/>
<path d="M146 42.908H141.45L141.863 42.509V43.944H141.1V41.998H146V42.908ZM146 39.192H141.45L141.863 38.793V40.228H141.1V38.282H146V39.192ZM146 35.476H141.45L141.863 35.077V36.512H141.1V34.566H146V35.476ZM146 31.725L141.464 29.702L141.87 29.464V32.243L141.429 31.809H142.703V32.656H141.1V28.848H141.709L146 30.752V31.725ZM146.07 25.3279C146.07 25.7152 145.972 26.0652 145.776 26.3779C145.58 26.6859 145.295 26.9285 144.922 27.1059C144.544 27.2832 144.087 27.3719 143.55 27.3719C143.013 27.3719 142.558 27.2832 142.185 27.1059C141.807 26.9285 141.52 26.6859 141.324 26.3779C141.128 26.0652 141.03 25.7152 141.03 25.3279C141.03 24.9359 141.128 24.5859 141.324 24.2779C141.52 23.9699 141.807 23.7272 142.185 23.5499C142.558 23.3679 143.013 23.2769 143.55 23.2769C144.087 23.2769 144.544 23.3679 144.922 23.5499C145.295 23.7272 145.58 23.9699 145.776 24.2779C145.972 24.5859 146.07 24.9359 146.07 25.3279ZM145.279 25.3279C145.279 25.0992 145.218 24.9009 145.097 24.7329C144.971 24.5649 144.78 24.4342 144.523 24.3409C144.266 24.2429 143.942 24.1939 143.55 24.1939C143.153 24.1939 142.829 24.2429 142.577 24.3409C142.32 24.4342 142.131 24.5649 142.01 24.7329C141.884 24.9009 141.821 25.0992 141.821 25.3279C141.821 25.5472 141.884 25.7432 142.01 25.9159C142.131 26.0839 142.32 26.2169 142.577 26.3149C142.829 26.4082 143.153 26.4549 143.55 26.4549C143.942 26.4549 144.266 26.4082 144.523 26.3149C144.78 26.2169 144.971 26.0839 145.097 25.9159C145.218 25.7432 145.279 25.5472 145.279 25.3279ZM146.07 19.4909C146.07 19.9343 145.977 20.3146 145.79 20.6319C145.599 20.9493 145.323 21.1919 144.964 21.3599C144.605 21.5279 144.161 21.6119 143.634 21.6119C143.074 21.6119 142.6 21.5116 142.213 21.3109C141.826 21.1056 141.532 20.8233 141.331 20.4639C141.13 20.0999 141.03 19.6823 141.03 19.2109C141.03 18.9636 141.056 18.7279 141.107 18.5039C141.158 18.2753 141.238 18.0816 141.345 17.9229L142.031 18.2589C141.942 18.3943 141.882 18.5413 141.849 18.6999C141.812 18.8539 141.793 19.0173 141.793 19.1899C141.793 19.6519 141.935 20.0183 142.22 20.2889C142.505 20.5596 142.925 20.6949 143.48 20.6949C143.569 20.6949 143.674 20.6926 143.795 20.6879C143.912 20.6833 144.031 20.6669 144.152 20.6389L143.844 20.9189C143.653 20.8349 143.494 20.7206 143.368 20.5759C143.237 20.4266 143.139 20.2516 143.074 20.0509C143.009 19.8456 142.976 19.6239 142.976 19.3859C142.976 19.0639 143.039 18.7769 143.165 18.5249C143.286 18.2729 143.461 18.0723 143.69 17.9229C143.914 17.7736 144.178 17.6989 144.481 17.6989C144.803 17.6989 145.083 17.7783 145.321 17.9369C145.559 18.0956 145.743 18.3103 145.874 18.5809C146.005 18.8516 146.07 19.1549 146.07 19.4909ZM145.356 19.5399C145.356 19.3533 145.323 19.1876 145.258 19.0429C145.188 18.8983 145.09 18.7863 144.964 18.7069C144.838 18.6229 144.691 18.5809 144.523 18.5809C144.266 18.5809 144.063 18.6696 143.914 18.8469C143.765 19.0243 143.69 19.2623 143.69 19.5609C143.69 19.7569 143.727 19.9296 143.802 20.0789C143.872 20.2236 143.97 20.3403 144.096 20.4289C144.222 20.5129 144.367 20.5549 144.53 20.5549C144.679 20.5549 144.817 20.5153 144.943 20.4359C145.069 20.3566 145.169 20.2423 145.244 20.0929C145.319 19.9389 145.356 19.7546 145.356 19.5399ZM146.07 14.1293C146.07 14.5166 145.972 14.8666 145.776 15.1793C145.58 15.4873 145.295 15.7299 144.922 15.9073C144.544 16.0846 144.087 16.1733 143.55 16.1733C143.013 16.1733 142.558 16.0846 142.185 15.9073C141.807 15.7299 141.52 15.4873 141.324 15.1793C141.128 14.8666 141.03 14.5166 141.03 14.1293C141.03 13.7373 141.128 13.3873 141.324 13.0793C141.52 12.7713 141.807 12.5286 142.185 12.3513C142.558 12.1693 143.013 12.0783 143.55 12.0783C144.087 12.0783 144.544 12.1693 144.922 12.3513C145.295 12.5286 145.58 12.7713 145.776 13.0793C145.972 13.3873 146.07 13.7373 146.07 14.1293ZM145.279 14.1293C145.279 13.9006 145.218 13.7023 145.097 13.5343C144.971 13.3663 144.78 13.2356 144.523 13.1423C144.266 13.0443 143.942 12.9953 143.55 12.9953C143.153 12.9953 142.829 13.0443 142.577 13.1423C142.32 13.2356 142.131 13.3663 142.01 13.5343C141.884 13.7023 141.821 13.9006 141.821 14.1293C141.821 14.3486 141.884 14.5446 142.01 14.7173C142.131 14.8853 142.32 15.0183 142.577 15.1163C142.829 15.2096 143.153 15.2563 143.55 15.2563C143.942 15.2563 144.266 15.2096 144.523 15.1163C144.78 15.0183 144.971 14.8853 145.097 14.7173C145.218 14.5446 145.279 14.3486 145.279 14.1293ZM146.07 8.29229C146.07 8.73562 145.977 9.11596 145.79 9.43329C145.599 9.75062 145.323 9.99329 144.964 10.1613C144.605 10.3293 144.161 10.4133 143.634 10.4133C143.074 10.4133 142.6 10.313 142.213 10.1123C141.826 9.90696 141.532 9.62462 141.331 9.26529C141.13 8.90129 141.03 8.48362 141.03 8.01229C141.03 7.76496 141.056 7.52929 141.107 7.30529C141.158 7.07662 141.238 6.88296 141.345 6.72429L142.031 7.06029C141.942 7.19562 141.882 7.34262 141.849 7.50129C141.812 7.65529 141.793 7.81862 141.793 7.99129C141.793 8.45329 141.935 8.81962 142.22 9.09029C142.505 9.36096 142.925 9.49629 143.48 9.49629C143.569 9.49629 143.674 9.49396 143.795 9.48929C143.912 9.48462 144.031 9.46829 144.152 9.44029L143.844 9.72029C143.653 9.63629 143.494 9.52196 143.368 9.37729C143.237 9.22796 143.139 9.05296 143.074 8.85229C143.009 8.64696 142.976 8.42529 142.976 8.18729C142.976 7.86529 143.039 7.57829 143.165 7.32629C143.286 7.07429 143.461 6.87362 143.69 6.72429C143.914 6.57496 144.178 6.50029 144.481 6.50029C144.803 6.50029 145.083 6.57962 145.321 6.73829C145.559 6.89696 145.743 7.11162 145.874 7.38229C146.005 7.65296 146.07 7.95629 146.07 8.29229ZM145.356 8.34129C145.356 8.15462 145.323 7.98896 145.258 7.84429C145.188 7.69962 145.09 7.58762 144.964 7.50829C144.838 7.42429 144.691 7.38229 144.523 7.38229C144.266 7.38229 144.063 7.47096 143.914 7.64829C143.765 7.82562 143.69 8.06362 143.69 8.36229C143.69 8.55829 143.727 8.73096 143.802 8.88029C143.872 9.02496 143.97 9.14162 144.096 9.23029C144.222 9.31429 144.367 9.35629 144.53 9.35629C144.679 9.35629 144.817 9.31662 144.943 9.23729C145.069 9.15796 145.169 9.04362 145.244 8.89429C145.319 8.74029 145.356 8.55596 145.356 8.34129Z" fill="#3C3636"/>
<path d="M139.5 2.5H149C151.485 2.5 153.5 4.51472 153.5 7V42C153.5 44.4853 151.485 46.5 149 46.5H139.5V2.5Z" stroke="#A8A7A7"/>
<path d="M13 6.092L17.55 6.092L17.137 6.491V5.056H17.9V7.002L13 7.002V6.092ZM13 9.80802H17.55L17.137 10.207V8.77202H17.9V10.718H13V9.80802ZM13 13.524H17.55L17.137 13.923V12.488H17.9V14.434H13V13.524ZM13 17.275L17.536 19.298L17.13 19.536L17.13 16.757L17.571 17.191H16.297V16.344H17.9L17.9 20.152H17.291L13 18.248V17.275ZM12.93 23.6721C12.93 23.2848 13.028 22.9348 13.224 22.6221C13.42 22.3141 13.7047 22.0715 14.078 21.8941C14.456 21.7168 14.9133 21.6281 15.45 21.6281C15.9867 21.6281 16.4417 21.7168 16.815 21.8941C17.193 22.0715 17.48 22.3141 17.676 22.6221C17.872 22.9348 17.97 23.2848 17.97 23.6721C17.97 24.0641 17.872 24.4141 17.676 24.7221C17.48 25.0301 17.193 25.2728 16.815 25.4501C16.4417 25.6321 15.9867 25.7231 15.45 25.7231C14.9133 25.7231 14.456 25.6321 14.078 25.4501C13.7047 25.2728 13.42 25.0301 13.224 24.7221C13.028 24.4141 12.93 24.0641 12.93 23.6721ZM13.721 23.6721C13.721 23.9008 13.7817 24.0991 13.903 24.2671C14.029 24.4351 14.2203 24.5658 14.477 24.6591C14.7337 24.7571 15.058 24.8061 15.45 24.8061C15.8467 24.8061 16.171 24.7571 16.423 24.6591C16.6797 24.5658 16.8687 24.4351 16.99 24.2671C17.116 24.0991 17.179 23.9008 17.179 23.6721C17.179 23.4528 17.116 23.2568 16.99 23.0841C16.8687 22.9161 16.6797 22.7831 16.423 22.6851C16.171 22.5918 15.8467 22.5451 15.45 22.5451C15.058 22.5451 14.7337 22.5918 14.477 22.6851C14.2203 22.7831 14.029 22.9161 13.903 23.0841C13.7817 23.2568 13.721 23.4528 13.721 23.6721ZM12.93 29.5091C12.93 29.0657 13.0233 28.6854 13.21 28.3681C13.4013 28.0507 13.6767 27.8081 14.036 27.6401C14.3953 27.4721 14.8387 27.3881 15.366 27.3881C15.926 27.3881 16.3997 27.4884 16.787 27.6891C17.1743 27.8944 17.4683 28.1767 17.669 28.5361C17.8697 28.9001 17.97 29.3177 17.97 29.7891C17.97 30.0364 17.9443 30.2721 17.893 30.4961C17.8417 30.7247 17.7623 30.9184 17.655 31.0771L16.969 30.7411C17.0577 30.6057 17.1183 30.4587 17.151 30.3001C17.1883 30.1461 17.207 29.9827 17.207 29.8101C17.207 29.3481 17.0647 28.9817 16.78 28.7111C16.4953 28.4404 16.0753 28.3051 15.52 28.3051C15.4313 28.3051 15.3263 28.3074 15.205 28.3121C15.0883 28.3167 14.9693 28.3331 14.848 28.3611L15.156 28.0811C15.3473 28.1651 15.506 28.2794 15.632 28.4241C15.7627 28.5734 15.8607 28.7484 15.926 28.9491C15.9913 29.1544 16.024 29.3761 16.024 29.6141C16.024 29.9361 15.961 30.2231 15.835 30.4751C15.7137 30.7271 15.5387 30.9277 15.31 31.0771C15.086 31.2264 14.8223 31.3011 14.519 31.3011C14.197 31.3011 13.917 31.2217 13.679 31.0631C13.441 30.9044 13.2567 30.6897 13.126 30.4191C12.9953 30.1484 12.93 29.8451 12.93 29.5091ZM13.644 29.4601C13.644 29.6467 13.6767 29.8124 13.742 29.9571C13.812 30.1017 13.91 30.2137 14.036 30.2931C14.162 30.3771 14.309 30.4191 14.477 30.4191C14.7337 30.4191 14.9367 30.3304 15.086 30.1531C15.2353 29.9757 15.31 29.7377 15.31 29.4391C15.31 29.2431 15.2727 29.0704 15.198 28.9211C15.128 28.7764 15.03 28.6597 14.904 28.5711C14.778 28.4871 14.6333 28.4451 14.47 28.4451C14.3207 28.4451 14.183 28.4847 14.057 28.5641C13.931 28.6434 13.8307 28.7577 13.756 28.9071C13.6813 29.0611 13.644 29.2454 13.644 29.4601ZM12.93 34.8707C12.93 34.4834 13.028 34.1334 13.224 33.8207C13.42 33.5127 13.7047 33.2701 14.078 33.0927C14.456 32.9154 14.9133 32.8267 15.45 32.8267C15.9867 32.8267 16.4417 32.9154 16.815 33.0927C17.193 33.2701 17.48 33.5127 17.676 33.8207C17.872 34.1334 17.97 34.4834 17.97 34.8707C17.97 35.2627 17.872 35.6127 17.676 35.9207C17.48 36.2287 17.193 36.4714 16.815 36.6487C16.4417 36.8307 15.9867 36.9217 15.45 36.9217C14.9133 36.9217 14.456 36.8307 14.078 36.6487C13.7047 36.4714 13.42 36.2287 13.224 35.9207C13.028 35.6127 12.93 35.2627 12.93 34.8707ZM13.721 34.8707C13.721 35.0994 13.7817 35.2977 13.903 35.4657C14.029 35.6337 14.2203 35.7644 14.477 35.8577C14.7337 35.9557 15.058 36.0047 15.45 36.0047C15.8467 36.0047 16.171 35.9557 16.423 35.8577C16.6797 35.7644 16.8687 35.6337 16.99 35.4657C17.116 35.2977 17.179 35.0994 17.179 34.8707C17.179 34.6514 17.116 34.4554 16.99 34.2827C16.8687 34.1147 16.6797 33.9817 16.423 33.8837C16.171 33.7904 15.8467 33.7437 15.45 33.7437C15.058 33.7437 14.7337 33.7904 14.477 33.8837C14.2203 33.9817 14.029 34.1147 13.903 34.2827C13.7817 34.4554 13.721 34.6514 13.721 34.8707ZM12.93 40.7077C12.93 40.2644 13.0233 39.884 13.21 39.5667C13.4013 39.2494 13.6767 39.0067 14.036 38.8387C14.3953 38.6707 14.8387 38.5867 15.366 38.5867C15.926 38.5867 16.3997 38.687 16.787 38.8877C17.1743 39.093 17.4683 39.3754 17.669 39.7347C17.8697 40.0987 17.97 40.5164 17.97 40.9877C17.97 41.235 17.9443 41.4707 17.893 41.6947C17.8417 41.9234 17.7623 42.117 17.655 42.2757L16.969 41.9397C17.0577 41.8044 17.1183 41.6574 17.151 41.4987C17.1883 41.3447 17.207 41.1814 17.207 41.0087C17.207 40.5467 17.0647 40.1804 16.78 39.9097C16.4953 39.639 16.0753 39.5037 15.52 39.5037C15.4313 39.5037 15.3263 39.506 15.205 39.5107C15.0883 39.5154 14.9693 39.5317 14.848 39.5597L15.156 39.2797C15.3473 39.3637 15.506 39.478 15.632 39.6227C15.7627 39.772 15.8607 39.947 15.926 40.1477C15.9913 40.353 16.024 40.5747 16.024 40.8127C16.024 41.1347 15.961 41.4217 15.835 41.6737C15.7137 41.9257 15.5387 42.1264 15.31 42.2757C15.086 42.425 14.8223 42.4997 14.519 42.4997C14.197 42.4997 13.917 42.4204 13.679 42.2617C13.441 42.103 13.2567 41.8884 13.126 41.6177C12.9953 41.347 12.93 41.0437 12.93 40.7077ZM13.644 40.6587C13.644 40.8454 13.6767 41.011 13.742 41.1557C13.812 41.3004 13.91 41.4124 14.036 41.4917C14.162 41.5757 14.309 41.6177 14.477 41.6177C14.7337 41.6177 14.9367 41.529 15.086 41.3517C15.2353 41.1744 15.31 40.9364 15.31 40.6377C15.31 40.4417 15.2727 40.269 15.198 40.1197C15.128 39.975 15.03 39.8584 14.904 39.7697C14.778 39.6857 14.6333 39.6437 14.47 39.6437C14.3207 39.6437 14.183 39.6834 14.057 39.7627C13.931 39.842 13.8307 39.9564 13.756 40.1057C13.6813 40.2597 13.644 40.444 13.644 40.6587Z" fill="#3C3636"/>
<path d="M20.5 46.5L11 46.5C8.51472 46.5 6.5 44.4853 6.5 42L6.5 7C6.5 4.51472 8.51472 2.5 11 2.5L20.5 2.5L20.5 46.5Z" stroke="#A8A7A7"/>
</svg>
