<svg width="731" height="701" viewBox="0 0 731 701" fill="none" xmlns="http://www.w3.org/2000/svg">
<path d="M488.706 188.664C505.281 191.893 521.834 196.826 533.65 208.484C562.553 237.001 568.533 270.643 568.311 307.167C568.231 320.325 567.347 333.816 566.447 347.571C566.096 352.932 565.742 358.333 565.432 363.77C564.329 383.129 563.787 402.895 565.944 422.722C566.42 427.101 566.926 431.544 567.436 436.033C570.48 462.786 573.711 491.189 572.083 517.658C570.183 548.548 561.673 576.605 538.675 596.204C506.133 623.937 465.976 640.274 409.935 626.17C353.792 612.04 281.618 567.338 185.215 472.642C141.069 422.771 106.161 366.997 93.614 314.204C81.0795 261.464 90.8599 211.756 136.031 173.718C193.073 125.683 252.535 123.783 312.115 136.721C341.007 142.995 369.894 152.752 398.544 162.428C399.457 162.737 400.37 163.045 401.283 163.354C430.806 173.322 460.072 183.085 488.706 188.664Z" stroke="white" stroke-opacity="0.07" stroke-width="2"/>
<path d="M112.27 159L117.879 164.797C123.245 170.342 131.321 172.306 138.634 169.844L146.279 167.27L140.912 171.765C134.194 177.392 131.921 186.738 135.305 194.821L138.009 201.279L132.4 195.482C127.034 189.937 118.957 187.973 111.645 190.435L104 193.009L109.367 188.514C116.085 182.887 118.358 173.541 114.974 165.458L112.27 159Z" fill="white"/>
<path d="M519 590.278L520.955 591.179C527.963 594.408 536.203 593.318 542.13 588.378L543.784 587L543.403 587.692C539.174 595.368 540.435 604.903 546.514 611.215L547.062 611.784L545.107 610.883C538.099 607.654 529.859 608.744 523.932 613.684L522.278 615.062L522.659 614.37C526.888 606.694 525.627 597.16 519.548 590.847L519 590.278Z" fill="white"/>
</svg>
