<svg width="103" height="736" viewBox="0 0 103 736" fill="none" xmlns="http://www.w3.org/2000/svg">
<path d="M102.92 680.4C102.92 687.88 101.6 694.94 98.96 701.58C96.28 708.22 92.6 714.08 87.92 719.16C83.2 724.24 77.74 728.22 71.54 731.1C65.34 733.98 58.7 735.42 51.62 735.42C44.5 735.42 37.84 733.98 31.64 731.1C25.4 728.18 19.94 724.2 15.26 719.16C10.54 714.08 6.86 708.24 4.22 701.64C1.54 695 0.199996 687.96 0.199996 680.52C0.199996 674.48 1.03999 668.7 2.71999 663.18C4.39999 657.66 6.58 652.98 9.26 649.14L28.94 658.98C27.1 661.42 25.64 664.42 24.56 667.98C23.48 671.54 22.94 675.22 22.94 679.02C22.94 683.42 23.66 687.52 25.1 691.32C26.54 695.12 28.56 698.46 31.16 701.34C33.76 704.18 36.8 706.4 40.28 708C43.72 709.56 47.48 710.34 51.56 710.34C55.64 710.34 59.42 709.56 62.9 708C66.34 706.4 69.36 704.18 71.96 701.34C74.56 698.46 76.58 695.12 78.02 691.32C79.46 687.52 80.18 683.42 80.18 679.02C80.18 675.22 79.64 671.54 78.56 667.98C77.48 664.42 76.02 661.42 74.18 658.98L93.86 649.14C96.42 652.82 98.58 657.4 100.34 662.88C102.06 668.36 102.92 674.2 102.92 680.4ZM102.92 575.043C102.92 581.963 101.6 588.443 98.96 594.483C96.32 600.523 92.66 605.823 87.98 610.383C83.26 614.943 77.8 618.523 71.6 621.123C65.36 623.683 58.68 624.963 51.56 624.963C44.44 624.963 37.78 623.683 31.58 621.123C25.34 618.523 19.88 614.943 15.2 610.383C10.48 605.823 6.79999 600.523 4.16 594.483C1.52 588.443 0.199996 581.963 0.199996 575.043C0.199996 568.123 1.52 561.643 4.16 555.603C6.79999 549.563 10.48 544.263 15.2 539.703C19.88 535.143 25.34 531.583 31.58 529.023C37.78 526.423 44.44 525.123 51.56 525.123C58.68 525.123 65.36 526.423 71.6 529.023C77.8 531.583 83.26 535.143 87.98 539.703C92.66 544.263 96.32 549.563 98.96 555.603C101.6 561.643 102.92 568.123 102.92 575.043ZM80.6 575.043C80.6 571.363 79.9 568.003 78.5 564.963C77.1 561.883 75.12 559.243 72.56 557.043C69.96 554.803 66.9 553.083 63.38 551.883C59.82 550.643 55.88 550.023 51.56 550.023C47.24 550.023 43.32 550.643 39.8 551.883C36.24 553.083 33.18 554.803 30.62 557.043C28.02 559.243 26.02 561.883 24.62 564.963C23.22 568.003 22.52 571.363 22.52 575.043C22.52 578.723 23.22 582.103 24.62 585.183C26.02 588.223 28.02 590.863 30.62 593.103C33.18 595.303 36.24 597.023 39.8 598.263C43.32 599.463 47.24 600.063 51.56 600.063C55.88 600.063 59.82 599.463 63.38 598.263C66.9 597.023 69.96 595.303 72.56 593.103C75.12 590.863 77.1 588.223 78.5 585.183C79.9 582.103 80.6 578.723 80.6 575.043ZM101 489.595H1.99999L1.99999 466.495L62.54 427.615H1.99999L1.99999 404.515H101V427.615L40.46 466.495H101V489.595ZM101 355.724H22.34L22.34 378.944H1.99999L1.99999 309.344H22.34V332.564H101V355.724ZM101 297.171L1.99999 257.091L1.99999 235.611L101 195.591V220.491L81.68 227.571V265.131L101 272.271V297.171ZM61.4 257.271V235.491L33.38 246.351L61.4 257.271ZM102.92 120.83C102.92 128.31 101.6 135.37 98.96 142.01C96.28 148.65 92.6 154.51 87.92 159.59C83.2 164.67 77.74 168.65 71.54 171.53C65.34 174.41 58.7 175.85 51.62 175.85C44.5 175.85 37.84 174.41 31.64 171.53C25.4 168.61 19.94 164.63 15.26 159.59C10.54 154.51 6.86 148.67 4.22 142.07C1.54 135.43 0.199996 128.39 0.199996 120.95C0.199996 114.91 1.03999 109.13 2.71999 103.61C4.39999 98.0897 6.58 93.4097 9.26 89.5697L28.94 99.4097C27.1 101.85 25.64 104.85 24.56 108.41C23.48 111.97 22.94 115.65 22.94 119.45C22.94 123.85 23.66 127.95 25.1 131.75C26.54 135.55 28.56 138.89 31.16 141.77C33.76 144.61 36.8 146.83 40.28 148.43C43.72 149.99 47.48 150.77 51.56 150.77C55.64 150.77 59.42 149.99 62.9 148.43C66.34 146.83 69.36 144.61 71.96 141.77C74.56 138.89 76.58 135.55 78.02 131.75C79.46 127.95 80.18 123.85 80.18 119.45C80.18 115.65 79.64 111.97 78.56 108.41C77.48 104.85 76.02 101.85 74.18 99.4097L93.86 89.5697C96.42 93.2497 98.58 97.8297 100.34 103.31C102.06 108.79 102.92 114.63 102.92 120.83ZM101 46.3725H22.34V69.5925H1.99999L1.99999 -0.00750303H22.34L22.34 23.2125H101V46.3725Z" fill="white"/>
</svg>
