<svg width="486" height="113" viewBox="0 0 486 113" fill="none" xmlns="http://www.w3.org/2000/svg">
<path d="M0.650001 110V2.74999H25.675L67.795 68.335V2.74999H92.82V110H67.795L25.675 44.415V110H0.650001ZM139.613 110V2.74999H201.233V24.72H164.638V45.26H199.673V67.23H164.638V88.03H201.233V110H139.613ZM263.316 110L232.766 2.74999H260.651L278.591 75.42L298.351 2.74999H317.071L336.831 75.42L354.771 2.74999H382.656L352.041 110H324.221L307.711 51.045L291.136 110H263.316ZM445.052 112.08C440.285 112.08 435.8 111.625 431.597 110.715C427.394 109.848 423.559 108.7 420.092 107.27C416.669 105.84 413.635 104.323 410.992 102.72C408.392 101.117 406.29 99.6 404.687 98.17L417.232 77.11C418.922 78.3667 420.829 79.6883 422.952 81.075C425.119 82.4617 427.437 83.74 429.907 84.91C432.377 86.08 434.955 87.0333 437.642 87.77C440.329 88.5067 443.037 88.875 445.767 88.875C448.367 88.875 450.599 88.5067 452.462 87.77C454.325 87.0333 455.777 85.9283 456.817 84.455C457.857 82.9817 458.377 81.14 458.377 78.93C458.377 76.8933 457.9 75.1383 456.947 73.665C456.037 72.1483 454.629 70.74 452.722 69.44C450.815 68.14 448.389 66.7967 445.442 65.41C442.539 63.98 439.094 62.355 435.107 60.535C432.16 59.1483 429.409 57.5667 426.852 55.79C424.295 54.0133 422.064 51.9983 420.157 49.745C418.25 47.4917 416.777 45 415.737 42.27C414.697 39.54 414.177 36.55 414.177 33.3C414.177 29.0967 415.022 25.0667 416.712 21.21C418.445 17.3533 420.894 13.8867 424.057 10.81C427.264 7.73333 431.077 5.30666 435.497 3.52999C439.96 1.70999 444.9 0.799996 450.317 0.799996C454.087 0.799996 457.965 1.255 461.952 2.165C465.982 3.07499 469.817 4.28833 473.457 5.805C477.097 7.32166 480.239 9.03333 482.882 10.94L472.742 30.895C470.662 29.465 468.387 28.2083 465.917 27.125C463.49 25.9983 460.999 25.1317 458.442 24.525C455.885 23.9183 453.372 23.615 450.902 23.615C448.345 23.615 446.157 24.005 444.337 24.785C442.56 25.5217 441.174 26.5833 440.177 27.97C439.224 29.3133 438.747 30.895 438.747 32.715C438.747 34.0583 439.029 35.2283 439.592 36.225C440.155 37.1783 441 38.045 442.127 38.825C443.297 39.5617 444.749 40.32 446.482 41.1C448.215 41.88 450.252 42.7467 452.592 43.7C457.879 45.9967 462.602 48.25 466.762 50.46C470.922 52.6267 474.41 55.01 477.227 57.61C480.087 60.21 482.232 63.2 483.662 66.58C485.135 69.9167 485.872 73.86 485.872 78.41C485.872 85.4733 484.182 91.5183 480.802 96.545C477.465 101.572 472.742 105.428 466.632 108.115C460.522 110.758 453.329 112.08 445.052 112.08Z" fill="white"/>
</svg>
