<svg width="34" height="34" viewBox="0 0 34 34" fill="none" xmlns="http://www.w3.org/2000/svg">
<path fill-rule="evenodd" clip-rule="evenodd" d="M17.1207 26.0886C22.2062 26.0886 26.3289 21.966 26.3289 16.8805C26.3289 11.795 22.2062 7.67236 17.1207 7.67236C12.0352 7.67236 7.9126 11.795 7.9126 16.8805C7.9126 21.966 12.0352 26.0886 17.1207 26.0886ZM17.1207 23.0192C20.511 23.0192 23.2595 20.2708 23.2595 16.8805C23.2595 13.4902 20.511 10.7417 17.1207 10.7417C13.7304 10.7417 10.982 13.4902 10.982 16.8805C10.982 20.2708 13.7304 23.0192 17.1207 23.0192Z" fill="#262626"/>
<path d="M26.3286 6.13916C25.481 6.13916 24.7939 6.82627 24.7939 7.67385C24.7939 8.52143 25.481 9.20854 26.3286 9.20854C27.1762 9.20854 27.8633 8.52143 27.8633 7.67385C27.8633 6.82627 27.1762 6.13916 26.3286 6.13916Z" fill="#262626"/>
<path fill-rule="evenodd" clip-rule="evenodd" d="M1.24044 5.02773C0.236816 6.99746 0.236816 9.57598 0.236816 14.733V19.0301C0.236816 24.1872 0.236816 26.7657 1.24044 28.7354C2.12326 30.468 3.53192 31.8767 5.26455 32.7595C7.23428 33.7631 9.8128 33.7631 14.9698 33.7631H19.267C24.424 33.7631 27.0026 33.7631 28.9722 32.7595C30.7048 31.8767 32.1135 30.468 32.9963 28.7354C34 26.7657 34 24.1872 34 19.0301V14.733C34 9.57598 34 6.99746 32.9963 5.02773C32.1135 3.2951 30.7048 1.88644 28.9722 1.00362C27.0026 0 24.424 0 19.267 0H14.9698C9.8128 0 7.23428 0 5.26455 1.00362C3.53192 1.88644 2.12326 3.2951 1.24044 5.02773ZM19.267 3.06938H14.9698C12.3407 3.06938 10.5534 3.07177 9.1719 3.18463C7.82622 3.29458 7.13807 3.49386 6.65801 3.73846C5.50293 4.32701 4.56383 5.26612 3.97527 6.4212C3.73067 6.90125 3.53139 7.5894 3.42145 8.93508C3.30859 10.3166 3.30619 12.1038 3.30619 14.733V19.0301C3.30619 21.6594 3.30859 23.4465 3.42145 24.828C3.53139 26.1738 3.73067 26.862 3.97527 27.342C4.56383 28.497 5.50293 29.4361 6.65801 30.0246C7.13807 30.2693 7.82622 30.4686 9.1719 30.5785C10.5534 30.6913 12.3407 30.6938 14.9698 30.6938H19.267C21.8962 30.6938 23.6833 30.6913 25.0649 30.5785C26.4106 30.4686 27.0988 30.2693 27.5788 30.0246C28.7338 29.4361 29.6729 28.497 30.2615 27.342C30.5061 26.862 30.7055 26.1738 30.8153 24.828C30.9281 23.4465 30.9306 21.6594 30.9306 19.0301V14.733C30.9306 12.1038 30.9281 10.3166 30.8153 8.93508C30.7055 7.5894 30.5061 6.90125 30.2615 6.4212C29.6729 5.26612 28.7338 4.32701 27.5788 3.73846C27.0988 3.49386 26.4106 3.29458 25.0649 3.18463C23.6833 3.07177 21.8962 3.06938 19.267 3.06938Z" fill="#262626"/>
</svg>
