<svg width="190" height="47" viewBox="0 0 190 47" fill="none" xmlns="http://www.w3.org/2000/svg">
<path d="M2.24489 14.5953C6.0396 5.74093 14.7459 0 24.3792 0H107.308C116.806 0 125.368 5.72343 129 14.5L129.312 15.3735C131.519 21.5511 140.309 21.3955 142.295 15.1436C142.431 14.7156 142.609 14.3019 142.826 13.9087L143.644 12.4257C147.874 4.76001 156.06 0 164.815 0C175.272 0 184.696 6.72552 187.942 16.6663L188.085 17.1054C189.651 21.8996 189.584 27.0774 187.894 31.8294C184.66 40.9246 176.052 47 166.399 47H165.076C156.084 47 147.803 42.1111 143.459 34.238L142.5 32.5C140.035 26.6827 131.856 26.5038 129.139 32.2078L129 32.5C125.368 41.2766 116.806 47 107.308 47H23.0829C14.1865 47 6.09528 41.847 2.3331 33.7852C-0.42391 27.8773 -0.531869 21.0744 2.03629 15.082L2.24489 14.5953Z" fill="white"/>
</svg>
