<svg width="34" height="35" viewBox="0 0 34 35" fill="none" xmlns="http://www.w3.org/2000/svg">
<g clip-path="url(#clip0_398_2)">
<path d="M18.4727 14.2166H18.1773H11.9283L6.94263 21.6208L18.3795 33.7347L18.8507 33.2354L29.8154 21.6208L24.8307 14.2166H18.4727ZM23.7254 15.6719L22.8047 20.089L19.5467 15.6719H23.7254ZM18.3333 16.0928L21.878 20.8957H14.8643L18.3333 16.0928ZM17.125 15.6719L13.9484 20.071V20.0721L13.0335 15.672H17.125V15.6719ZM12.0009 16.5814L12.8991 20.8957H9.09535L12.0009 16.5814ZM13.2613 22.1847L16.4065 29.608L9.39766 22.1847H13.2613ZM18.3795 31.1684L14.5728 22.1847H22.1853L18.3795 31.1684ZM20.3516 29.608L23.4967 22.1847H27.3594L20.3516 29.608ZM23.8589 20.8957L24.7581 16.5814L27.6627 20.8957H23.8589Z" fill="#1400FF"/>
<path d="M33.1011 13.7461C31.4736 13.7461 30.9111 13.3051 30.5941 12.9638C30.2789 12.6214 29.8696 12.014 29.8696 10.2565C29.8696 10.1898 29.8637 10 29.6693 10C29.476 10 29.4691 10.1898 29.4691 10.2565C29.4691 12.014 29.0597 12.6214 28.7436 12.9638C28.4266 13.3051 27.8631 13.7461 26.2375 13.7461C26.1747 13.7461 26 13.7534 26 13.9633C26 14.1722 26.1747 14.1796 26.2375 14.1796C27.8631 14.1796 28.4266 14.6217 28.7436 14.963C29.0597 15.3043 29.4691 15.9128 29.4691 17.6703C29.4691 17.7381 29.4759 17.9258 29.6693 17.9258C29.8637 17.9258 29.8696 17.7381 29.8696 17.6703C29.8696 15.9128 30.279 15.3043 30.5941 14.963C30.9111 14.6206 31.4736 14.1796 33.1011 14.1796C33.1639 14.1796 33.3386 14.1733 33.3386 13.9623C33.3386 13.7545 33.1639 13.7461 33.1011 13.7461Z" fill="#1400FF"/>
<path d="M9.32593 8.74316C11.563 8.74316 12.3366 9.35163 12.7714 9.82014C13.2063 10.2897 13.7678 11.1261 13.7678 13.5418C13.7678 13.634 13.7796 13.8927 14.0446 13.8927C14.3116 13.8927 14.3194 13.634 14.3194 13.5418C14.3194 11.1261 14.8819 10.2897 15.3167 9.82014C15.7506 9.35055 16.5242 8.74316 18.7623 8.74316C18.8476 8.74316 19.0882 8.73468 19.0882 8.44636C19.0882 8.16014 18.8477 8.14745 18.7623 8.14745C16.5242 8.14745 15.7506 7.54109 15.3167 7.07258C14.8819 6.60189 14.3194 5.76772 14.3194 3.35189C14.3194 3.2597 14.3116 3 14.0446 3C13.7795 3 13.7678 3.2597 13.7678 3.35196C13.7678 5.76772 13.2062 6.60196 12.7714 7.07264C12.3366 7.54115 11.5631 8.14752 9.32593 8.14752C9.24055 8.14752 9 8.15919 9 8.44643C9 8.73258 9.24049 8.74316 9.32593 8.74316Z" fill="#1400FF"/>
<path d="M8.75061 16.6444C8.75061 16.4525 8.58959 16.445 8.53267 16.445C7.03571 16.445 6.51741 16.0391 6.22685 15.7253C5.93629 15.4105 5.55935 14.8519 5.55935 13.2353C5.55935 13.1739 5.55344 13 5.37477 13C5.19805 13 5.19019 13.1739 5.19019 13.2353C5.19019 14.8519 4.81426 15.4105 4.5237 15.7253C4.23213 16.0391 3.71383 16.445 2.21787 16.445C2.16001 16.4451 2 16.4525 2 16.6444C2 16.8362 2.16001 16.8437 2.21794 16.8437C3.71396 16.8437 4.23226 17.2507 4.52376 17.5645C4.81432 17.8783 5.19026 18.4379 5.19026 20.0556C5.19026 20.117 5.19811 20.2898 5.37483 20.2898C5.5535 20.2898 5.55941 20.117 5.55941 20.0556C5.55941 18.4379 5.93635 17.8783 6.22691 17.5645C6.51747 17.2496 7.03577 16.8437 8.53274 16.8437C8.58965 16.8437 8.75061 16.8373 8.75061 16.6444Z" fill="#1400FF"/>
</g>
<defs>
<clipPath id="clip0_398_2">
<rect width="32.1658" height="34.7347" fill="white" transform="translate(0.984375)"/>
</clipPath>
</defs>
</svg>
