<svg width="35" height="34" viewBox="0 0 35 34" fill="none" xmlns="http://www.w3.org/2000/svg">
<path fill-rule="evenodd" clip-rule="evenodd" d="M29.7787 0C32.3215 0 34.3828 2.06132 34.3828 4.60407V29.1591C34.3828 31.7019 32.3215 33.7631 29.7787 33.7631H5.22369C2.68095 33.7631 0.619629 31.7019 0.619629 29.1591V4.60407C0.619629 2.06132 2.68095 0 5.22369 0H29.7787ZM29.7787 3.06938C30.6263 3.06938 31.3134 3.75649 31.3134 4.60407V29.1591C31.3134 30.0067 30.6263 30.6938 29.7787 30.6938H22.1053V19.9508H25.2916C25.9521 19.9508 26.5385 19.5281 26.7475 18.9014L27.4274 16.8618C27.6759 16.1164 27.1211 15.3467 26.3355 15.3467H22.1053V12.2774C22.1053 11.51 22.8726 10.7427 23.64 10.7427H26.7093C27.5569 10.7427 28.244 10.0556 28.244 9.20801V8.15523C28.244 7.65949 27.9274 7.21503 27.448 7.08853C25.4363 6.55765 23.64 6.55765 23.64 6.55765C19.8032 6.55765 17.5012 9.20801 17.5012 11.51V15.3467H14.4318C13.5842 15.3467 12.8971 16.0338 12.8971 16.8814V18.4161C12.8971 19.2637 13.5842 19.9508 14.4318 19.9508H17.5012V30.6938H5.22369C4.37612 30.6938 3.68901 30.0067 3.68901 29.1591V4.60407C3.68901 3.75649 4.37612 3.06938 5.22369 3.06938H29.7787Z" fill="#262626"/>
</svg>
