<svg width="64" height="65" viewBox="0 0 64 65" fill="none" xmlns="http://www.w3.org/2000/svg">
<path fill-rule="evenodd" clip-rule="evenodd" d="M37.3425 42.9377C35.5067 45.3804 28.9215 45.4967 26.6949 43.1293C24.6099 45.5617 17.4015 45.8388 15.0503 41.1861L16.4516 39.6261C18.5433 42.9069 24.0406 43.2593 26.4962 39.6261C26.6516 39.6084 26.8079 39.5991 26.9644 39.5988C28.561 42.3356 33.0747 42.8796 35.628 41.0869C35.601 37.5906 35.5202 27.0607 35.5202 26.2396C35.5202 19.3393 44.753 19.7841 44.2208 26.8896L42.166 27.0709C42.166 23.4309 38.3564 23.6191 38.353 26.2704C38.353 26.9888 38.4238 37.3819 38.4473 40.4985C41.0545 42.6982 45.4166 42.3904 47.6162 39.7048L48.9635 40.9398C46.7336 45.719 40.0069 45.5719 37.3425 42.9377ZM31.4916 35.5448C29.4335 35.5175 26.2873 35.5243 24.4953 35.5448C24.5156 37.5051 24.5324 38.9659 24.5324 38.9659L21.7366 39.8006C21.7366 39.8006 21.6187 27.2933 21.6187 26.2567C21.6187 19.3564 30.9459 19.6849 30.4137 26.4756L28.268 26.8999C28.268 23.0067 24.4212 23.7833 24.4212 26.2156C24.4212 27.6628 24.4415 30.3551 24.4684 32.8935L33.9943 32.7841C33.9943 32.7841 34.5164 35.579 31.4916 35.5448ZM26.4962 45.5001C26.6516 45.4816 26.8079 45.4714 26.9644 45.4693C28.9113 48.7911 35.1935 48.8904 36.972 45.4488H37.5547C39.9126 48.6304 45.1404 48.6098 47.6162 45.589L48.9635 46.824C46.7471 51.6135 40.0204 51.4561 37.356 48.8219C35.5202 51.2646 28.9349 51.3775 26.7084 49.0135C24.6233 51.4459 17.4149 51.7196 15.0638 47.0704L16.4516 45.5001C18.5433 48.7911 24.0406 49.1435 26.4962 45.5001Z" fill="black"/>
</svg>
